<svg width="16" height="18" viewBox="0 0 16 18" fill="none" xmlns="http://www.w3.org/2000/svg">
<path fill-rule="evenodd" clip-rule="evenodd" d="M9.99956 16C9.99956 17.1 9.09956 18 7.99956 18C6.88956 18 5.99956 17.1 5.99956 16H9.99956Z" fill="#9699AB"/>
<path fill-rule="evenodd" clip-rule="evenodd" d="M15.2896 13.29L13.9996 12V6.99999C13.9996 3.92999 12.3596 1.35999 9.49956 0.679993C9.49956 0.679993 8.58952 0.499995 7.99951 0.5C7.40954 0.500005 6.49956 0.679993 6.49956 0.679993C3.62956 1.35999 1.99956 3.91999 1.99956 6.99999V12L0.709563 13.29C0.0795632 13.92 0.519563 15 1.40956 15H14.5796C15.4796 15 15.9196 13.92 15.2896 13.29ZM3.99956 13H11.9996V6.99999C11.9996 4.51999 10.4896 2.49999 7.99956 2.49999C5.50956 2.49999 3.99956 4.51999 3.99956 6.99999V13Z" fill="#9699AB"/>
</svg>
