<svg width="32" height="32" viewBox="0 0 32 32" fill="none" xmlns="http://www.w3.org/2000/svg">
<rect width="32" height="32" rx="10" fill="#F7F7FC"/>
<path d="M23.8802 22.4698C24.3602 21.6998 24.6302 20.7998 24.5702 19.8098C24.4402 17.6598 22.7302 15.8398 20.6002 15.6098C17.8802 15.3098 15.5802 17.4198 15.5802 20.0798C15.5802 22.5698 17.5902 24.5798 20.0702 24.5798C20.9502 24.5798 21.7702 24.3198 22.4602 23.8798L24.8702 26.2898C25.2602 26.6798 25.9002 26.6798 26.2902 26.2898C26.6802 25.8998 26.6802 25.2598 26.2902 24.8698L23.8802 22.4698ZM20.0802 22.5798C18.7002 22.5798 17.5802 21.4598 17.5802 20.0798C17.5802 18.6998 18.7002 17.5798 20.0802 17.5798C21.4602 17.5798 22.5802 18.6998 22.5802 20.0798C22.5802 21.4598 21.4602 22.5798 20.0802 22.5798ZM19.7202 14.0798C18.9802 14.0998 18.2702 14.2598 17.6202 14.5298L17.0702 13.6998L13.9902 18.7098C13.6302 19.2898 12.8202 19.3498 12.3802 18.8398L10.2602 16.3698L7.20023 21.2698C6.89023 21.7598 6.23023 21.8898 5.76023 21.5498C5.34023 21.2398 5.22023 20.6598 5.50023 20.2098L9.28023 14.1598C9.64023 13.5898 10.4502 13.5298 10.8902 14.0398L13.0002 16.4998L16.1802 11.3298C16.5602 10.7098 17.4602 10.6898 17.8602 11.2998L19.7202 14.0798ZM22.3102 14.5798C21.6702 14.2998 20.9802 14.1298 20.2602 14.0898L24.8002 6.89981C25.1102 6.40981 25.7702 6.28981 26.2302 6.62981C26.6602 6.93981 26.7702 7.52981 26.4902 7.96981L22.3102 14.5798Z" fill="#9699AB"/>
</svg>
