<svg width="93" height="24" viewBox="0 0 93 24" fill="none" xmlns="http://www.w3.org/2000/svg">
<mask id="mask0_35_438" style="mask-type:alpha" maskUnits="userSpaceOnUse" x="1" y="5" width="91" height="15">
<path d="M1.42969 19.6364H4.05522V13.5697H10.7712V19.6364H13.4038V5.35541H10.7712V11.4011H4.05522V5.35541H1.42969V19.6364ZM29.2101 12.4959C29.2101 7.87968 26.351 5.16016 22.5508 5.16016C18.7433 5.16016 15.8913 7.87968 15.8913 12.4959C15.8913 17.1052 18.7433 19.8317 22.5508 19.8317C26.351 19.8317 29.2101 17.1121 29.2101 12.4959ZM26.5704 12.4959C26.5704 15.7453 24.9144 17.5096 22.5508 17.5096C20.1941 17.5096 18.5311 15.7453 18.5311 12.4959C18.5311 9.24642 20.1941 7.48221 22.5508 7.48221C24.9144 7.48221 26.5704 9.24642 26.5704 12.4959ZM31.6923 19.6364H40.7013V17.4678H34.3178V5.35541H31.6923V19.6364ZM40.5296 5.35541L45.8019 14.3089V19.6364H48.4204V14.3089L53.6926 5.35541H50.7275L47.1819 11.6731H47.0403L43.4948 5.35541H40.5296ZM55.5522 19.6364H65.0352V17.4678H58.1776V13.5697H64.4902V11.4011H58.1776V7.52406H64.9786V5.35541H55.5522V19.6364ZM69.5184 19.6364L70.7144 16.1149H76.1636L77.3666 19.6364H80.1691L75.0596 5.35541H71.8184L66.7159 19.6364H69.5184ZM71.4221 14.037L73.3824 8.28413H73.4956L75.4559 14.037H71.4221ZM79.6896 7.52406H84.1694V19.6364H86.7737V7.52406H91.2533V5.35541H79.6896V7.52406Z" fill="black"/>
</mask>
<g mask="url(#mask0_35_438)">
<path d="M90.7857 -9.81824H-25.4644V35.9999H90.7857V-9.81824Z" fill="#9699AB"/>
</g>
</svg>
