<svg width="32" height="32" viewBox="0 0 32 32" fill="none" xmlns="http://www.w3.org/2000/svg">
<rect width="32" height="32" rx="10" fill="#F7F7FC"/>
<path d="M18 15C18 15.55 17.55 16 17 16H8C7.45 16 7 15.55 7 15C7 14.45 7.45 14 8 14H17C17.55 14 18 14.45 18 15ZM7 11C7 11.55 7.45 12 8 12H17C17.55 12 18 11.55 18 11C18 10.45 17.55 10 17 10H8C7.45 10 7 10.45 7 11ZM14 19C14 18.45 13.55 18 13 18H8C7.45 18 7 18.45 7 19C7 19.55 7.45 20 8 20H13C13.55 20 14 19.55 14 19ZM22.01 16.87L22.72 16.16C23.11 15.77 23.74 15.77 24.13 16.16L24.84 16.87C25.23 17.26 25.23 17.89 24.84 18.28L24.13 18.99L22.01 16.87ZM21.3 17.58L16.14 22.74C16.05 22.83 16 22.95 16 23.09V24.5C16 24.78 16.22 25 16.5 25H17.91C18.04 25 18.17 24.95 18.26 24.85L23.42 19.69L21.3 17.58Z" fill="#9699AB"/>
</svg>
