<svg width="17" height="17" viewBox="0 0 17 17" fill="none" xmlns="http://www.w3.org/2000/svg">
<circle cx="8.5" cy="8.5" r="8.5" fill="#32AD67"/>
<path d="M12.3571 9.14286H9.14286V12.3571C9.14286 12.7107 8.85357 13 8.5 13C8.14643 13 7.85714 12.7107 7.85714 12.3571V9.14286H4.64286C4.28929 9.14286 4 8.85357 4 8.5C4 8.14643 4.28929 7.85714 4.64286 7.85714H7.85714V4.64286C7.85714 4.28929 8.14643 4 8.5 4C8.85357 4 9.14286 4.28929 9.14286 4.64286V7.85714H12.3571C12.7107 7.85714 13 8.14643 13 8.5C13 8.85357 12.7107 9.14286 12.3571 9.14286Z" fill="white"/>
</svg>
